%TF.GenerationSoftware,KiCad,Pcbnew,(6.0.5-0)*%
%TF.CreationDate,2022-05-25T14:46:03+02:00*%
%TF.ProjectId,vibrant,76696272-616e-4742-9e6b-696361645f70,rev?*%
%TF.SameCoordinates,Original*%
%TF.FileFunction,Soldermask,Bot*%
%TF.FilePolarity,Negative*%
%FSLAX46Y46*%
G04 Gerber Fmt 4.6, Leading zero omitted, Abs format (unit mm)*
G04 Created by KiCad (PCBNEW (6.0.5-0)) date 2022-05-25 14:46:03*
%MOMM*%
%LPD*%
G01*
G04 APERTURE LIST*
%ADD10O,1.200000X1.200000*%
%ADD11O,1.200000X1.600000*%
%ADD12C,1.600000*%
%ADD13R,1.600000X1.600000*%
%ADD14O,1.600000X1.600000*%
%ADD15R,1.700000X1.700000*%
%ADD16O,1.700000X1.700000*%
%ADD17C,1.000000*%
%ADD18R,1.900000X1.900000*%
%ADD19C,1.900000*%
%ADD20C,2.340000*%
%ADD21C,2.200000*%
%ADD22R,2.200000X2.200000*%
%ADD23O,2.200000X2.200000*%
G04 APERTURE END LIST*
D10*
%TO.C,NPN1*%
X116655276Y-68764724D03*
X115385276Y-67494724D03*
D11*
X116655276Y-66224724D03*
%TD*%
D12*
%TO.C,BRAIN1*%
X64109600Y-66929000D03*
X64109600Y-69469000D03*
X64109600Y-72009000D03*
X64109600Y-74549000D03*
X64109600Y-77089000D03*
X64109600Y-79629000D03*
X64109600Y-82169000D03*
X64109600Y-84709000D03*
X64109600Y-87249000D03*
X64109600Y-89789000D03*
X64109600Y-92329000D03*
X64109600Y-94869000D03*
X43789600Y-94869000D03*
X43789600Y-92329000D03*
X43789600Y-89789000D03*
X43789600Y-87249000D03*
X43789600Y-84709000D03*
X43789600Y-82169000D03*
X43789600Y-79629000D03*
X43789600Y-77089000D03*
X43789600Y-74549000D03*
X43789600Y-72009000D03*
X43789600Y-69469000D03*
X43789600Y-66929000D03*
X43789600Y-64389000D03*
X43789600Y-61849000D03*
X43789600Y-59309000D03*
D13*
X43789600Y-56769000D03*
%TD*%
D10*
%TO.C,NPN5*%
X71120000Y-68764724D03*
X69850000Y-67494724D03*
D11*
X71120000Y-66224724D03*
%TD*%
D14*
%TO.C,R5*%
X52705000Y-86995000D03*
D12*
X60325000Y-86995000D03*
%TD*%
D15*
%TO.C,GP-Switch*%
X81280000Y-53340000D03*
D16*
X83820000Y-53340000D03*
X86360000Y-53340000D03*
%TD*%
D17*
%TO.C,M5*%
X68620000Y-95290000D03*
X73620000Y-95290000D03*
D18*
X68870000Y-91290000D03*
D19*
X73370000Y-91290000D03*
X68220000Y-98790000D03*
X74020000Y-98790000D03*
%TD*%
%TO.C,M4*%
X85608750Y-98790000D03*
X79808750Y-98790000D03*
X84958750Y-91290000D03*
D18*
X80458750Y-91290000D03*
D17*
X85208750Y-95290000D03*
X80208750Y-95290000D03*
%TD*%
D19*
%TO.C,M3*%
X97197500Y-98790000D03*
X91397500Y-98790000D03*
X96547500Y-91290000D03*
D18*
X92047500Y-91290000D03*
D17*
X96797500Y-95290000D03*
X91797500Y-95290000D03*
%TD*%
D19*
%TO.C,M2*%
X108786250Y-98790000D03*
X102986250Y-98790000D03*
X108136250Y-91290000D03*
D18*
X103636250Y-91290000D03*
D17*
X108386250Y-95290000D03*
X103386250Y-95290000D03*
%TD*%
D15*
%TO.C,J1_Battery1*%
X99695000Y-53340000D03*
D16*
X102235000Y-53340000D03*
%TD*%
D19*
%TO.C,M1*%
X120375000Y-98790000D03*
X114575000Y-98790000D03*
X119725000Y-91290000D03*
D18*
X115225000Y-91290000D03*
D17*
X119975000Y-95290000D03*
X114975000Y-95290000D03*
%TD*%
D20*
%TO.C,RV1-Potencia1*%
X28572900Y-64755800D03*
X38572900Y-62255800D03*
X28572900Y-59755800D03*
%TD*%
D12*
%TO.C,CAP4*%
X87252500Y-76200000D03*
D14*
X79752500Y-76200000D03*
%TD*%
D12*
%TO.C,R4*%
X60325000Y-83185000D03*
D14*
X52705000Y-83185000D03*
%TD*%
D12*
%TO.C,CAP5*%
X76140000Y-76200000D03*
D14*
X68640000Y-76200000D03*
%TD*%
D21*
%TO.C,Fast*%
X29311600Y-98018600D03*
%TD*%
D10*
%TO.C,NPN4*%
X82503819Y-68764724D03*
X81233819Y-67494724D03*
D11*
X82503819Y-66224724D03*
%TD*%
D15*
%TO.C,SW-Mode1*%
X32297900Y-90805000D03*
D16*
X34837900Y-90805000D03*
%TD*%
D12*
%TO.C,CAP1*%
X120590000Y-76200000D03*
D14*
X113090000Y-76200000D03*
%TD*%
D21*
%TO.C,Fast*%
X120015000Y-53311000D03*
%TD*%
D22*
%TO.C,D2*%
X109537500Y-84455000D03*
D23*
X101917500Y-84455000D03*
%TD*%
D22*
%TO.C,D3*%
X98425000Y-84455000D03*
D23*
X90805000Y-84455000D03*
%TD*%
D10*
%TO.C,NPN3*%
X93887638Y-68764724D03*
X92617638Y-67494724D03*
D11*
X93887638Y-66224724D03*
%TD*%
D22*
%TO.C,D4*%
X87312500Y-84455000D03*
D23*
X79692500Y-84455000D03*
%TD*%
D12*
%TO.C,CAP2*%
X109477500Y-76200000D03*
D14*
X101977500Y-76200000D03*
%TD*%
D21*
%TO.C,Fast*%
X29311600Y-53187600D03*
%TD*%
D12*
%TO.C,R6-10K1*%
X37465000Y-85090000D03*
D14*
X29845000Y-85090000D03*
%TD*%
D12*
%TO.C,CAP3*%
X98365000Y-76200000D03*
D14*
X90865000Y-76200000D03*
%TD*%
D12*
%TO.C,R3*%
X60325000Y-79375000D03*
D14*
X52705000Y-79375000D03*
%TD*%
D12*
%TO.C,R2*%
X60325000Y-75565000D03*
D14*
X52705000Y-75565000D03*
%TD*%
D20*
%TO.C,RV2-Velocidad1*%
X28572900Y-78294000D03*
X38572900Y-75794000D03*
X28572900Y-73294000D03*
%TD*%
D10*
%TO.C,NPN2*%
X105271457Y-68764724D03*
X104001457Y-67494724D03*
D11*
X105271457Y-66224724D03*
%TD*%
D22*
%TO.C,D1*%
X120650000Y-84583807D03*
D23*
X113030000Y-84583807D03*
%TD*%
D22*
%TO.C,D5*%
X76200000Y-84455000D03*
D23*
X68580000Y-84455000D03*
%TD*%
D12*
%TO.C,R1*%
X60325000Y-71755000D03*
D14*
X52705000Y-71755000D03*
%TD*%
M02*
