%TF.GenerationSoftware,KiCad,Pcbnew,(6.0.5-0)*%
%TF.CreationDate,2022-05-25T14:46:03+02:00*%
%TF.ProjectId,vibrant,76696272-616e-4742-9e6b-696361645f70,rev?*%
%TF.SameCoordinates,Original*%
%TF.FileFunction,Legend,Top*%
%TF.FilePolarity,Positive*%
%FSLAX46Y46*%
G04 Gerber Fmt 4.6, Leading zero omitted, Abs format (unit mm)*
G04 Created by KiCad (PCBNEW (6.0.5-0)) date 2022-05-25 14:46:03*
%MOMM*%
%LPD*%
G01*
G04 APERTURE LIST*
%ADD10C,0.300000*%
%ADD11C,0.150000*%
%ADD12C,0.120000*%
G04 APERTURE END LIST*
D10*
X48594142Y-63440571D02*
X49094142Y-64940571D01*
X49594142Y-63440571D01*
X50094142Y-64940571D02*
X50094142Y-63940571D01*
X50094142Y-63440571D02*
X50022714Y-63512000D01*
X50094142Y-63583428D01*
X50165571Y-63512000D01*
X50094142Y-63440571D01*
X50094142Y-63583428D01*
X50808428Y-64940571D02*
X50808428Y-63440571D01*
X50808428Y-64012000D02*
X50951285Y-63940571D01*
X51237000Y-63940571D01*
X51379857Y-64012000D01*
X51451285Y-64083428D01*
X51522714Y-64226285D01*
X51522714Y-64654857D01*
X51451285Y-64797714D01*
X51379857Y-64869142D01*
X51237000Y-64940571D01*
X50951285Y-64940571D01*
X50808428Y-64869142D01*
X52165571Y-64940571D02*
X52165571Y-63940571D01*
X52165571Y-64226285D02*
X52237000Y-64083428D01*
X52308428Y-64012000D01*
X52451285Y-63940571D01*
X52594142Y-63940571D01*
X53737000Y-64940571D02*
X53737000Y-64154857D01*
X53665571Y-64012000D01*
X53522714Y-63940571D01*
X53237000Y-63940571D01*
X53094142Y-64012000D01*
X53737000Y-64869142D02*
X53594142Y-64940571D01*
X53237000Y-64940571D01*
X53094142Y-64869142D01*
X53022714Y-64726285D01*
X53022714Y-64583428D01*
X53094142Y-64440571D01*
X53237000Y-64369142D01*
X53594142Y-64369142D01*
X53737000Y-64297714D01*
X54451285Y-63940571D02*
X54451285Y-64940571D01*
X54451285Y-64083428D02*
X54522714Y-64012000D01*
X54665571Y-63940571D01*
X54879857Y-63940571D01*
X55022714Y-64012000D01*
X55094142Y-64154857D01*
X55094142Y-64940571D01*
X55594142Y-63940571D02*
X56165571Y-63940571D01*
X55808428Y-63440571D02*
X55808428Y-64726285D01*
X55879857Y-64869142D01*
X56022714Y-64940571D01*
X56165571Y-64940571D01*
X58594142Y-64940571D02*
X57737000Y-64940571D01*
X58165571Y-64940571D02*
X58165571Y-63440571D01*
X58022714Y-63654857D01*
X57879857Y-63797714D01*
X57737000Y-63869142D01*
X59237000Y-64797714D02*
X59308428Y-64869142D01*
X59237000Y-64940571D01*
X59165571Y-64869142D01*
X59237000Y-64797714D01*
X59237000Y-64940571D01*
X60237000Y-63440571D02*
X60379857Y-63440571D01*
X60522714Y-63512000D01*
X60594142Y-63583428D01*
X60665571Y-63726285D01*
X60737000Y-64012000D01*
X60737000Y-64369142D01*
X60665571Y-64654857D01*
X60594142Y-64797714D01*
X60522714Y-64869142D01*
X60379857Y-64940571D01*
X60237000Y-64940571D01*
X60094142Y-64869142D01*
X60022714Y-64797714D01*
X59951285Y-64654857D01*
X59879857Y-64369142D01*
X59879857Y-64012000D01*
X59951285Y-63726285D01*
X60022714Y-63583428D01*
X60094142Y-63512000D01*
X60237000Y-63440571D01*
X48303571Y-87680714D02*
X47303571Y-87680714D01*
X46803571Y-87680714D02*
X46875000Y-87752142D01*
X46946428Y-87680714D01*
X46875000Y-87609285D01*
X46803571Y-87680714D01*
X46946428Y-87680714D01*
X48446428Y-87323571D02*
X48446428Y-86180714D01*
X48303571Y-85823571D02*
X47303571Y-85823571D01*
X47446428Y-85823571D02*
X47375000Y-85752142D01*
X47303571Y-85609285D01*
X47303571Y-85395000D01*
X47375000Y-85252142D01*
X47517857Y-85180714D01*
X48303571Y-85180714D01*
X47517857Y-85180714D02*
X47375000Y-85109285D01*
X47303571Y-84966428D01*
X47303571Y-84752142D01*
X47375000Y-84609285D01*
X47517857Y-84537857D01*
X48303571Y-84537857D01*
X47517857Y-83323571D02*
X47589285Y-83109285D01*
X47660714Y-83037857D01*
X47803571Y-82966428D01*
X48017857Y-82966428D01*
X48160714Y-83037857D01*
X48232142Y-83109285D01*
X48303571Y-83252142D01*
X48303571Y-83823571D01*
X46803571Y-83823571D01*
X46803571Y-83323571D01*
X46875000Y-83180714D01*
X46946428Y-83109285D01*
X47089285Y-83037857D01*
X47232142Y-83037857D01*
X47375000Y-83109285D01*
X47446428Y-83180714D01*
X47517857Y-83323571D01*
X47517857Y-83823571D01*
X46803571Y-82037857D02*
X46803571Y-81752142D01*
X46875000Y-81609285D01*
X47017857Y-81466428D01*
X47303571Y-81395000D01*
X47803571Y-81395000D01*
X48089285Y-81466428D01*
X48232142Y-81609285D01*
X48303571Y-81752142D01*
X48303571Y-82037857D01*
X48232142Y-82180714D01*
X48089285Y-82323571D01*
X47803571Y-82395000D01*
X47303571Y-82395000D01*
X47017857Y-82323571D01*
X46875000Y-82180714D01*
X46803571Y-82037857D01*
X48303571Y-80752142D02*
X46803571Y-80752142D01*
X46803571Y-80395000D01*
X46875000Y-80180714D01*
X47017857Y-80037857D01*
X47160714Y-79966428D01*
X47446428Y-79895000D01*
X47660714Y-79895000D01*
X47946428Y-79966428D01*
X48089285Y-80037857D01*
X48232142Y-80180714D01*
X48303571Y-80395000D01*
X48303571Y-80752142D01*
X47589285Y-78966428D02*
X48303571Y-78966428D01*
X46803571Y-79466428D02*
X47589285Y-78966428D01*
X46803571Y-78466428D01*
X48303571Y-76109285D02*
X48303571Y-76823571D01*
X46803571Y-76823571D01*
X48303571Y-74966428D02*
X47517857Y-74966428D01*
X47375000Y-75037857D01*
X47303571Y-75180714D01*
X47303571Y-75466428D01*
X47375000Y-75609285D01*
X48232142Y-74966428D02*
X48303571Y-75109285D01*
X48303571Y-75466428D01*
X48232142Y-75609285D01*
X48089285Y-75680714D01*
X47946428Y-75680714D01*
X47803571Y-75609285D01*
X47732142Y-75466428D01*
X47732142Y-75109285D01*
X47660714Y-74966428D01*
X48303571Y-74252142D02*
X46803571Y-74252142D01*
X47375000Y-74252142D02*
X47303571Y-74109285D01*
X47303571Y-73823571D01*
X47375000Y-73680714D01*
X47446428Y-73609285D01*
X47589285Y-73537857D01*
X48017857Y-73537857D01*
X48160714Y-73609285D01*
X48232142Y-73680714D01*
X48303571Y-73823571D01*
X48303571Y-74109285D01*
X48232142Y-74252142D01*
D11*
%TO.C,NPN1*%
X112339380Y-69222714D02*
X111339380Y-69222714D01*
X112339380Y-68651285D01*
X111339380Y-68651285D01*
X112339380Y-68175095D02*
X111339380Y-68175095D01*
X111339380Y-67794142D01*
X111387000Y-67698904D01*
X111434619Y-67651285D01*
X111529857Y-67603666D01*
X111672714Y-67603666D01*
X111767952Y-67651285D01*
X111815571Y-67698904D01*
X111863190Y-67794142D01*
X111863190Y-68175095D01*
X112339380Y-67175095D02*
X111339380Y-67175095D01*
X112339380Y-66603666D01*
X111339380Y-66603666D01*
X112339380Y-65603666D02*
X112339380Y-66175095D01*
X112339380Y-65889380D02*
X111339380Y-65889380D01*
X111482238Y-65984619D01*
X111577476Y-66079857D01*
X111625095Y-66175095D01*
%TO.C,BRAIN1*%
X51854361Y-52633571D02*
X51997219Y-52681190D01*
X52044838Y-52728809D01*
X52092457Y-52824047D01*
X52092457Y-52966904D01*
X52044838Y-53062142D01*
X51997219Y-53109761D01*
X51901980Y-53157380D01*
X51521028Y-53157380D01*
X51521028Y-52157380D01*
X51854361Y-52157380D01*
X51949600Y-52205000D01*
X51997219Y-52252619D01*
X52044838Y-52347857D01*
X52044838Y-52443095D01*
X51997219Y-52538333D01*
X51949600Y-52585952D01*
X51854361Y-52633571D01*
X51521028Y-52633571D01*
X53092457Y-53157380D02*
X52759123Y-52681190D01*
X52521028Y-53157380D02*
X52521028Y-52157380D01*
X52901980Y-52157380D01*
X52997219Y-52205000D01*
X53044838Y-52252619D01*
X53092457Y-52347857D01*
X53092457Y-52490714D01*
X53044838Y-52585952D01*
X52997219Y-52633571D01*
X52901980Y-52681190D01*
X52521028Y-52681190D01*
X53473409Y-52871666D02*
X53949600Y-52871666D01*
X53378171Y-53157380D02*
X53711504Y-52157380D01*
X54044838Y-53157380D01*
X54378171Y-53157380D02*
X54378171Y-52157380D01*
X54854361Y-53157380D02*
X54854361Y-52157380D01*
X55425790Y-53157380D01*
X55425790Y-52157380D01*
X56425790Y-53157380D02*
X55854361Y-53157380D01*
X56140076Y-53157380D02*
X56140076Y-52157380D01*
X56044838Y-52300238D01*
X55949600Y-52395476D01*
X55854361Y-52443095D01*
%TO.C,NPN5*%
X76652380Y-69222714D02*
X75652380Y-69222714D01*
X76652380Y-68651285D01*
X75652380Y-68651285D01*
X76652380Y-68175095D02*
X75652380Y-68175095D01*
X75652380Y-67794142D01*
X75700000Y-67698904D01*
X75747619Y-67651285D01*
X75842857Y-67603666D01*
X75985714Y-67603666D01*
X76080952Y-67651285D01*
X76128571Y-67698904D01*
X76176190Y-67794142D01*
X76176190Y-68175095D01*
X76652380Y-67175095D02*
X75652380Y-67175095D01*
X76652380Y-66603666D01*
X75652380Y-66603666D01*
X75652380Y-65651285D02*
X75652380Y-66127476D01*
X76128571Y-66175095D01*
X76080952Y-66127476D01*
X76033333Y-66032238D01*
X76033333Y-65794142D01*
X76080952Y-65698904D01*
X76128571Y-65651285D01*
X76223809Y-65603666D01*
X76461904Y-65603666D01*
X76557142Y-65651285D01*
X76604761Y-65698904D01*
X76652380Y-65794142D01*
X76652380Y-66032238D01*
X76604761Y-66127476D01*
X76557142Y-66175095D01*
%TO.C,R5*%
X50252333Y-87193380D02*
X49919000Y-86717190D01*
X49680904Y-87193380D02*
X49680904Y-86193380D01*
X50061857Y-86193380D01*
X50157095Y-86241000D01*
X50204714Y-86288619D01*
X50252333Y-86383857D01*
X50252333Y-86526714D01*
X50204714Y-86621952D01*
X50157095Y-86669571D01*
X50061857Y-86717190D01*
X49680904Y-86717190D01*
X51157095Y-86193380D02*
X50680904Y-86193380D01*
X50633285Y-86669571D01*
X50680904Y-86621952D01*
X50776142Y-86574333D01*
X51014238Y-86574333D01*
X51109476Y-86621952D01*
X51157095Y-86669571D01*
X51204714Y-86764809D01*
X51204714Y-87002904D01*
X51157095Y-87098142D01*
X51109476Y-87145761D01*
X51014238Y-87193380D01*
X50776142Y-87193380D01*
X50680904Y-87145761D01*
X50633285Y-87098142D01*
%TO.C,GP-Switch*%
X68493095Y-52840000D02*
X68397857Y-52792380D01*
X68255000Y-52792380D01*
X68112142Y-52840000D01*
X68016904Y-52935238D01*
X67969285Y-53030476D01*
X67921666Y-53220952D01*
X67921666Y-53363809D01*
X67969285Y-53554285D01*
X68016904Y-53649523D01*
X68112142Y-53744761D01*
X68255000Y-53792380D01*
X68350238Y-53792380D01*
X68493095Y-53744761D01*
X68540714Y-53697142D01*
X68540714Y-53363809D01*
X68350238Y-53363809D01*
X68969285Y-53792380D02*
X68969285Y-52792380D01*
X69350238Y-52792380D01*
X69445476Y-52840000D01*
X69493095Y-52887619D01*
X69540714Y-52982857D01*
X69540714Y-53125714D01*
X69493095Y-53220952D01*
X69445476Y-53268571D01*
X69350238Y-53316190D01*
X68969285Y-53316190D01*
X69969285Y-53411428D02*
X70731190Y-53411428D01*
X71159761Y-53744761D02*
X71302619Y-53792380D01*
X71540714Y-53792380D01*
X71635952Y-53744761D01*
X71683571Y-53697142D01*
X71731190Y-53601904D01*
X71731190Y-53506666D01*
X71683571Y-53411428D01*
X71635952Y-53363809D01*
X71540714Y-53316190D01*
X71350238Y-53268571D01*
X71255000Y-53220952D01*
X71207380Y-53173333D01*
X71159761Y-53078095D01*
X71159761Y-52982857D01*
X71207380Y-52887619D01*
X71255000Y-52840000D01*
X71350238Y-52792380D01*
X71588333Y-52792380D01*
X71731190Y-52840000D01*
X72064523Y-53125714D02*
X72255000Y-53792380D01*
X72445476Y-53316190D01*
X72635952Y-53792380D01*
X72826428Y-53125714D01*
X73207380Y-53792380D02*
X73207380Y-53125714D01*
X73207380Y-52792380D02*
X73159761Y-52840000D01*
X73207380Y-52887619D01*
X73255000Y-52840000D01*
X73207380Y-52792380D01*
X73207380Y-52887619D01*
X73540714Y-53125714D02*
X73921666Y-53125714D01*
X73683571Y-52792380D02*
X73683571Y-53649523D01*
X73731190Y-53744761D01*
X73826428Y-53792380D01*
X73921666Y-53792380D01*
X74683571Y-53744761D02*
X74588333Y-53792380D01*
X74397857Y-53792380D01*
X74302619Y-53744761D01*
X74255000Y-53697142D01*
X74207380Y-53601904D01*
X74207380Y-53316190D01*
X74255000Y-53220952D01*
X74302619Y-53173333D01*
X74397857Y-53125714D01*
X74588333Y-53125714D01*
X74683571Y-53173333D01*
X75112142Y-53792380D02*
X75112142Y-52792380D01*
X75540714Y-53792380D02*
X75540714Y-53268571D01*
X75493095Y-53173333D01*
X75397857Y-53125714D01*
X75255000Y-53125714D01*
X75159761Y-53173333D01*
X75112142Y-53220952D01*
%TO.C,M5*%
X70310476Y-96337380D02*
X70310476Y-95337380D01*
X70643809Y-96051666D01*
X70977142Y-95337380D01*
X70977142Y-96337380D01*
X71929523Y-95337380D02*
X71453333Y-95337380D01*
X71405714Y-95813571D01*
X71453333Y-95765952D01*
X71548571Y-95718333D01*
X71786666Y-95718333D01*
X71881904Y-95765952D01*
X71929523Y-95813571D01*
X71977142Y-95908809D01*
X71977142Y-96146904D01*
X71929523Y-96242142D01*
X71881904Y-96289761D01*
X71786666Y-96337380D01*
X71548571Y-96337380D01*
X71453333Y-96289761D01*
X71405714Y-96242142D01*
%TO.C,M4*%
X81740476Y-96337380D02*
X81740476Y-95337380D01*
X82073809Y-96051666D01*
X82407142Y-95337380D01*
X82407142Y-96337380D01*
X83311904Y-95670714D02*
X83311904Y-96337380D01*
X83073809Y-95289761D02*
X82835714Y-96004047D01*
X83454761Y-96004047D01*
%TO.C,M3*%
X93170476Y-96337380D02*
X93170476Y-95337380D01*
X93503809Y-96051666D01*
X93837142Y-95337380D01*
X93837142Y-96337380D01*
X94218095Y-95337380D02*
X94837142Y-95337380D01*
X94503809Y-95718333D01*
X94646666Y-95718333D01*
X94741904Y-95765952D01*
X94789523Y-95813571D01*
X94837142Y-95908809D01*
X94837142Y-96146904D01*
X94789523Y-96242142D01*
X94741904Y-96289761D01*
X94646666Y-96337380D01*
X94360952Y-96337380D01*
X94265714Y-96289761D01*
X94218095Y-96242142D01*
%TO.C,M2*%
X105235476Y-96337380D02*
X105235476Y-95337380D01*
X105568809Y-96051666D01*
X105902142Y-95337380D01*
X105902142Y-96337380D01*
X106330714Y-95432619D02*
X106378333Y-95385000D01*
X106473571Y-95337380D01*
X106711666Y-95337380D01*
X106806904Y-95385000D01*
X106854523Y-95432619D01*
X106902142Y-95527857D01*
X106902142Y-95623095D01*
X106854523Y-95765952D01*
X106283095Y-96337380D01*
X106902142Y-96337380D01*
%TO.C,J1_Battery1*%
X89003666Y-52919380D02*
X89003666Y-53633666D01*
X88956047Y-53776523D01*
X88860809Y-53871761D01*
X88717952Y-53919380D01*
X88622714Y-53919380D01*
X90003666Y-53919380D02*
X89432238Y-53919380D01*
X89717952Y-53919380D02*
X89717952Y-52919380D01*
X89622714Y-53062238D01*
X89527476Y-53157476D01*
X89432238Y-53205095D01*
X90194142Y-54014619D02*
X90956047Y-54014619D01*
X91527476Y-53395571D02*
X91670333Y-53443190D01*
X91717952Y-53490809D01*
X91765571Y-53586047D01*
X91765571Y-53728904D01*
X91717952Y-53824142D01*
X91670333Y-53871761D01*
X91575095Y-53919380D01*
X91194142Y-53919380D01*
X91194142Y-52919380D01*
X91527476Y-52919380D01*
X91622714Y-52967000D01*
X91670333Y-53014619D01*
X91717952Y-53109857D01*
X91717952Y-53205095D01*
X91670333Y-53300333D01*
X91622714Y-53347952D01*
X91527476Y-53395571D01*
X91194142Y-53395571D01*
X92622714Y-53919380D02*
X92622714Y-53395571D01*
X92575095Y-53300333D01*
X92479857Y-53252714D01*
X92289380Y-53252714D01*
X92194142Y-53300333D01*
X92622714Y-53871761D02*
X92527476Y-53919380D01*
X92289380Y-53919380D01*
X92194142Y-53871761D01*
X92146523Y-53776523D01*
X92146523Y-53681285D01*
X92194142Y-53586047D01*
X92289380Y-53538428D01*
X92527476Y-53538428D01*
X92622714Y-53490809D01*
X92956047Y-53252714D02*
X93337000Y-53252714D01*
X93098904Y-52919380D02*
X93098904Y-53776523D01*
X93146523Y-53871761D01*
X93241761Y-53919380D01*
X93337000Y-53919380D01*
X93527476Y-53252714D02*
X93908428Y-53252714D01*
X93670333Y-52919380D02*
X93670333Y-53776523D01*
X93717952Y-53871761D01*
X93813190Y-53919380D01*
X93908428Y-53919380D01*
X94622714Y-53871761D02*
X94527476Y-53919380D01*
X94337000Y-53919380D01*
X94241761Y-53871761D01*
X94194142Y-53776523D01*
X94194142Y-53395571D01*
X94241761Y-53300333D01*
X94337000Y-53252714D01*
X94527476Y-53252714D01*
X94622714Y-53300333D01*
X94670333Y-53395571D01*
X94670333Y-53490809D01*
X94194142Y-53586047D01*
X95098904Y-53919380D02*
X95098904Y-53252714D01*
X95098904Y-53443190D02*
X95146523Y-53347952D01*
X95194142Y-53300333D01*
X95289380Y-53252714D01*
X95384619Y-53252714D01*
X95622714Y-53252714D02*
X95860809Y-53919380D01*
X96098904Y-53252714D02*
X95860809Y-53919380D01*
X95765571Y-54157476D01*
X95717952Y-54205095D01*
X95622714Y-54252714D01*
X97003666Y-53919380D02*
X96432238Y-53919380D01*
X96717952Y-53919380D02*
X96717952Y-52919380D01*
X96622714Y-53062238D01*
X96527476Y-53157476D01*
X96432238Y-53205095D01*
%TO.C,M1*%
X116665476Y-96337380D02*
X116665476Y-95337380D01*
X116998809Y-96051666D01*
X117332142Y-95337380D01*
X117332142Y-96337380D01*
X118332142Y-96337380D02*
X117760714Y-96337380D01*
X118046428Y-96337380D02*
X118046428Y-95337380D01*
X117951190Y-95480238D01*
X117855952Y-95575476D01*
X117760714Y-95623095D01*
%TO.C,RV1-Potencia1*%
X28644328Y-56558180D02*
X28310995Y-56081990D01*
X28072900Y-56558180D02*
X28072900Y-55558180D01*
X28453852Y-55558180D01*
X28549090Y-55605800D01*
X28596709Y-55653419D01*
X28644328Y-55748657D01*
X28644328Y-55891514D01*
X28596709Y-55986752D01*
X28549090Y-56034371D01*
X28453852Y-56081990D01*
X28072900Y-56081990D01*
X28930042Y-55558180D02*
X29263376Y-56558180D01*
X29596709Y-55558180D01*
X30453852Y-56558180D02*
X29882423Y-56558180D01*
X30168138Y-56558180D02*
X30168138Y-55558180D01*
X30072900Y-55701038D01*
X29977661Y-55796276D01*
X29882423Y-55843895D01*
X30882423Y-56177228D02*
X31644328Y-56177228D01*
X32120519Y-56558180D02*
X32120519Y-55558180D01*
X32501471Y-55558180D01*
X32596709Y-55605800D01*
X32644328Y-55653419D01*
X32691947Y-55748657D01*
X32691947Y-55891514D01*
X32644328Y-55986752D01*
X32596709Y-56034371D01*
X32501471Y-56081990D01*
X32120519Y-56081990D01*
X33263376Y-56558180D02*
X33168138Y-56510561D01*
X33120519Y-56462942D01*
X33072900Y-56367704D01*
X33072900Y-56081990D01*
X33120519Y-55986752D01*
X33168138Y-55939133D01*
X33263376Y-55891514D01*
X33406233Y-55891514D01*
X33501471Y-55939133D01*
X33549090Y-55986752D01*
X33596709Y-56081990D01*
X33596709Y-56367704D01*
X33549090Y-56462942D01*
X33501471Y-56510561D01*
X33406233Y-56558180D01*
X33263376Y-56558180D01*
X33882423Y-55891514D02*
X34263376Y-55891514D01*
X34025280Y-55558180D02*
X34025280Y-56415323D01*
X34072900Y-56510561D01*
X34168138Y-56558180D01*
X34263376Y-56558180D01*
X34977661Y-56510561D02*
X34882423Y-56558180D01*
X34691947Y-56558180D01*
X34596709Y-56510561D01*
X34549090Y-56415323D01*
X34549090Y-56034371D01*
X34596709Y-55939133D01*
X34691947Y-55891514D01*
X34882423Y-55891514D01*
X34977661Y-55939133D01*
X35025280Y-56034371D01*
X35025280Y-56129609D01*
X34549090Y-56224847D01*
X35453852Y-55891514D02*
X35453852Y-56558180D01*
X35453852Y-55986752D02*
X35501471Y-55939133D01*
X35596709Y-55891514D01*
X35739566Y-55891514D01*
X35834804Y-55939133D01*
X35882423Y-56034371D01*
X35882423Y-56558180D01*
X36787185Y-56510561D02*
X36691947Y-56558180D01*
X36501471Y-56558180D01*
X36406233Y-56510561D01*
X36358614Y-56462942D01*
X36310995Y-56367704D01*
X36310995Y-56081990D01*
X36358614Y-55986752D01*
X36406233Y-55939133D01*
X36501471Y-55891514D01*
X36691947Y-55891514D01*
X36787185Y-55939133D01*
X37215757Y-56558180D02*
X37215757Y-55891514D01*
X37215757Y-55558180D02*
X37168138Y-55605800D01*
X37215757Y-55653419D01*
X37263376Y-55605800D01*
X37215757Y-55558180D01*
X37215757Y-55653419D01*
X38120519Y-56558180D02*
X38120519Y-56034371D01*
X38072900Y-55939133D01*
X37977661Y-55891514D01*
X37787185Y-55891514D01*
X37691947Y-55939133D01*
X38120519Y-56510561D02*
X38025280Y-56558180D01*
X37787185Y-56558180D01*
X37691947Y-56510561D01*
X37644328Y-56415323D01*
X37644328Y-56320085D01*
X37691947Y-56224847D01*
X37787185Y-56177228D01*
X38025280Y-56177228D01*
X38120519Y-56129609D01*
X39120519Y-56558180D02*
X38549090Y-56558180D01*
X38834804Y-56558180D02*
X38834804Y-55558180D01*
X38739566Y-55701038D01*
X38644328Y-55796276D01*
X38549090Y-55843895D01*
%TO.C,CAP4*%
X82407261Y-79227142D02*
X82359642Y-79274761D01*
X82216785Y-79322380D01*
X82121547Y-79322380D01*
X81978690Y-79274761D01*
X81883452Y-79179523D01*
X81835833Y-79084285D01*
X81788214Y-78893809D01*
X81788214Y-78750952D01*
X81835833Y-78560476D01*
X81883452Y-78465238D01*
X81978690Y-78370000D01*
X82121547Y-78322380D01*
X82216785Y-78322380D01*
X82359642Y-78370000D01*
X82407261Y-78417619D01*
X82788214Y-79036666D02*
X83264404Y-79036666D01*
X82692976Y-79322380D02*
X83026309Y-78322380D01*
X83359642Y-79322380D01*
X83692976Y-79322380D02*
X83692976Y-78322380D01*
X84073928Y-78322380D01*
X84169166Y-78370000D01*
X84216785Y-78417619D01*
X84264404Y-78512857D01*
X84264404Y-78655714D01*
X84216785Y-78750952D01*
X84169166Y-78798571D01*
X84073928Y-78846190D01*
X83692976Y-78846190D01*
X85121547Y-78655714D02*
X85121547Y-79322380D01*
X84883452Y-78274761D02*
X84645357Y-78989047D01*
X85264404Y-78989047D01*
%TO.C,R4*%
X50252333Y-83383380D02*
X49919000Y-82907190D01*
X49680904Y-83383380D02*
X49680904Y-82383380D01*
X50061857Y-82383380D01*
X50157095Y-82431000D01*
X50204714Y-82478619D01*
X50252333Y-82573857D01*
X50252333Y-82716714D01*
X50204714Y-82811952D01*
X50157095Y-82859571D01*
X50061857Y-82907190D01*
X49680904Y-82907190D01*
X51109476Y-82716714D02*
X51109476Y-83383380D01*
X50871380Y-82335761D02*
X50633285Y-83050047D01*
X51252333Y-83050047D01*
%TO.C,CAP5*%
X71294761Y-79227142D02*
X71247142Y-79274761D01*
X71104285Y-79322380D01*
X71009047Y-79322380D01*
X70866190Y-79274761D01*
X70770952Y-79179523D01*
X70723333Y-79084285D01*
X70675714Y-78893809D01*
X70675714Y-78750952D01*
X70723333Y-78560476D01*
X70770952Y-78465238D01*
X70866190Y-78370000D01*
X71009047Y-78322380D01*
X71104285Y-78322380D01*
X71247142Y-78370000D01*
X71294761Y-78417619D01*
X71675714Y-79036666D02*
X72151904Y-79036666D01*
X71580476Y-79322380D02*
X71913809Y-78322380D01*
X72247142Y-79322380D01*
X72580476Y-79322380D02*
X72580476Y-78322380D01*
X72961428Y-78322380D01*
X73056666Y-78370000D01*
X73104285Y-78417619D01*
X73151904Y-78512857D01*
X73151904Y-78655714D01*
X73104285Y-78750952D01*
X73056666Y-78798571D01*
X72961428Y-78846190D01*
X72580476Y-78846190D01*
X74056666Y-78322380D02*
X73580476Y-78322380D01*
X73532857Y-78798571D01*
X73580476Y-78750952D01*
X73675714Y-78703333D01*
X73913809Y-78703333D01*
X74009047Y-78750952D01*
X74056666Y-78798571D01*
X74104285Y-78893809D01*
X74104285Y-79131904D01*
X74056666Y-79227142D01*
X74009047Y-79274761D01*
X73913809Y-79322380D01*
X73675714Y-79322380D01*
X73580476Y-79274761D01*
X73532857Y-79227142D01*
%TO.C,Fast*%
X33671000Y-98099571D02*
X33337666Y-98099571D01*
X33337666Y-98623380D02*
X33337666Y-97623380D01*
X33813857Y-97623380D01*
X34623380Y-98623380D02*
X34623380Y-98099571D01*
X34575761Y-98004333D01*
X34480523Y-97956714D01*
X34290047Y-97956714D01*
X34194809Y-98004333D01*
X34623380Y-98575761D02*
X34528142Y-98623380D01*
X34290047Y-98623380D01*
X34194809Y-98575761D01*
X34147190Y-98480523D01*
X34147190Y-98385285D01*
X34194809Y-98290047D01*
X34290047Y-98242428D01*
X34528142Y-98242428D01*
X34623380Y-98194809D01*
X35051952Y-98575761D02*
X35147190Y-98623380D01*
X35337666Y-98623380D01*
X35432904Y-98575761D01*
X35480523Y-98480523D01*
X35480523Y-98432904D01*
X35432904Y-98337666D01*
X35337666Y-98290047D01*
X35194809Y-98290047D01*
X35099571Y-98242428D01*
X35051952Y-98147190D01*
X35051952Y-98099571D01*
X35099571Y-98004333D01*
X35194809Y-97956714D01*
X35337666Y-97956714D01*
X35432904Y-98004333D01*
X35766238Y-97956714D02*
X36147190Y-97956714D01*
X35909095Y-97623380D02*
X35909095Y-98480523D01*
X35956714Y-98575761D01*
X36051952Y-98623380D01*
X36147190Y-98623380D01*
%TO.C,NPN4*%
X88082380Y-69222714D02*
X87082380Y-69222714D01*
X88082380Y-68651285D01*
X87082380Y-68651285D01*
X88082380Y-68175095D02*
X87082380Y-68175095D01*
X87082380Y-67794142D01*
X87130000Y-67698904D01*
X87177619Y-67651285D01*
X87272857Y-67603666D01*
X87415714Y-67603666D01*
X87510952Y-67651285D01*
X87558571Y-67698904D01*
X87606190Y-67794142D01*
X87606190Y-68175095D01*
X88082380Y-67175095D02*
X87082380Y-67175095D01*
X88082380Y-66603666D01*
X87082380Y-66603666D01*
X87415714Y-65698904D02*
X88082380Y-65698904D01*
X87034761Y-65937000D02*
X87749047Y-66175095D01*
X87749047Y-65556047D01*
%TO.C,SW-Mode1*%
X29710757Y-93749761D02*
X29853614Y-93797380D01*
X30091709Y-93797380D01*
X30186947Y-93749761D01*
X30234566Y-93702142D01*
X30282185Y-93606904D01*
X30282185Y-93511666D01*
X30234566Y-93416428D01*
X30186947Y-93368809D01*
X30091709Y-93321190D01*
X29901233Y-93273571D01*
X29805995Y-93225952D01*
X29758376Y-93178333D01*
X29710757Y-93083095D01*
X29710757Y-92987857D01*
X29758376Y-92892619D01*
X29805995Y-92845000D01*
X29901233Y-92797380D01*
X30139328Y-92797380D01*
X30282185Y-92845000D01*
X30615519Y-92797380D02*
X30853614Y-93797380D01*
X31044090Y-93083095D01*
X31234566Y-93797380D01*
X31472661Y-92797380D01*
X31853614Y-93416428D02*
X32615519Y-93416428D01*
X33091709Y-93797380D02*
X33091709Y-92797380D01*
X33425042Y-93511666D01*
X33758376Y-92797380D01*
X33758376Y-93797380D01*
X34377423Y-93797380D02*
X34282185Y-93749761D01*
X34234566Y-93702142D01*
X34186947Y-93606904D01*
X34186947Y-93321190D01*
X34234566Y-93225952D01*
X34282185Y-93178333D01*
X34377423Y-93130714D01*
X34520280Y-93130714D01*
X34615519Y-93178333D01*
X34663138Y-93225952D01*
X34710757Y-93321190D01*
X34710757Y-93606904D01*
X34663138Y-93702142D01*
X34615519Y-93749761D01*
X34520280Y-93797380D01*
X34377423Y-93797380D01*
X35567900Y-93797380D02*
X35567900Y-92797380D01*
X35567900Y-93749761D02*
X35472661Y-93797380D01*
X35282185Y-93797380D01*
X35186947Y-93749761D01*
X35139328Y-93702142D01*
X35091709Y-93606904D01*
X35091709Y-93321190D01*
X35139328Y-93225952D01*
X35186947Y-93178333D01*
X35282185Y-93130714D01*
X35472661Y-93130714D01*
X35567900Y-93178333D01*
X36425042Y-93749761D02*
X36329804Y-93797380D01*
X36139328Y-93797380D01*
X36044090Y-93749761D01*
X35996471Y-93654523D01*
X35996471Y-93273571D01*
X36044090Y-93178333D01*
X36139328Y-93130714D01*
X36329804Y-93130714D01*
X36425042Y-93178333D01*
X36472661Y-93273571D01*
X36472661Y-93368809D01*
X35996471Y-93464047D01*
X37425042Y-93797380D02*
X36853614Y-93797380D01*
X37139328Y-93797380D02*
X37139328Y-92797380D01*
X37044090Y-92940238D01*
X36948852Y-93035476D01*
X36853614Y-93083095D01*
%TO.C,CAP1*%
X115744761Y-79227142D02*
X115697142Y-79274761D01*
X115554285Y-79322380D01*
X115459047Y-79322380D01*
X115316190Y-79274761D01*
X115220952Y-79179523D01*
X115173333Y-79084285D01*
X115125714Y-78893809D01*
X115125714Y-78750952D01*
X115173333Y-78560476D01*
X115220952Y-78465238D01*
X115316190Y-78370000D01*
X115459047Y-78322380D01*
X115554285Y-78322380D01*
X115697142Y-78370000D01*
X115744761Y-78417619D01*
X116125714Y-79036666D02*
X116601904Y-79036666D01*
X116030476Y-79322380D02*
X116363809Y-78322380D01*
X116697142Y-79322380D01*
X117030476Y-79322380D02*
X117030476Y-78322380D01*
X117411428Y-78322380D01*
X117506666Y-78370000D01*
X117554285Y-78417619D01*
X117601904Y-78512857D01*
X117601904Y-78655714D01*
X117554285Y-78750952D01*
X117506666Y-78798571D01*
X117411428Y-78846190D01*
X117030476Y-78846190D01*
X118554285Y-79322380D02*
X117982857Y-79322380D01*
X118268571Y-79322380D02*
X118268571Y-78322380D01*
X118173333Y-78465238D01*
X118078095Y-78560476D01*
X117982857Y-78608095D01*
%TO.C,Fast*%
X113935000Y-53239571D02*
X113601666Y-53239571D01*
X113601666Y-53763380D02*
X113601666Y-52763380D01*
X114077857Y-52763380D01*
X114887380Y-53763380D02*
X114887380Y-53239571D01*
X114839761Y-53144333D01*
X114744523Y-53096714D01*
X114554047Y-53096714D01*
X114458809Y-53144333D01*
X114887380Y-53715761D02*
X114792142Y-53763380D01*
X114554047Y-53763380D01*
X114458809Y-53715761D01*
X114411190Y-53620523D01*
X114411190Y-53525285D01*
X114458809Y-53430047D01*
X114554047Y-53382428D01*
X114792142Y-53382428D01*
X114887380Y-53334809D01*
X115315952Y-53715761D02*
X115411190Y-53763380D01*
X115601666Y-53763380D01*
X115696904Y-53715761D01*
X115744523Y-53620523D01*
X115744523Y-53572904D01*
X115696904Y-53477666D01*
X115601666Y-53430047D01*
X115458809Y-53430047D01*
X115363571Y-53382428D01*
X115315952Y-53287190D01*
X115315952Y-53239571D01*
X115363571Y-53144333D01*
X115458809Y-53096714D01*
X115601666Y-53096714D01*
X115696904Y-53144333D01*
X116030238Y-53096714D02*
X116411190Y-53096714D01*
X116173095Y-52763380D02*
X116173095Y-53620523D01*
X116220714Y-53715761D01*
X116315952Y-53763380D01*
X116411190Y-53763380D01*
%TO.C,D2*%
X104989404Y-87377380D02*
X104989404Y-86377380D01*
X105227500Y-86377380D01*
X105370357Y-86425000D01*
X105465595Y-86520238D01*
X105513214Y-86615476D01*
X105560833Y-86805952D01*
X105560833Y-86948809D01*
X105513214Y-87139285D01*
X105465595Y-87234523D01*
X105370357Y-87329761D01*
X105227500Y-87377380D01*
X104989404Y-87377380D01*
X105941785Y-86472619D02*
X105989404Y-86425000D01*
X106084642Y-86377380D01*
X106322738Y-86377380D01*
X106417976Y-86425000D01*
X106465595Y-86472619D01*
X106513214Y-86567857D01*
X106513214Y-86663095D01*
X106465595Y-86805952D01*
X105894166Y-87377380D01*
X106513214Y-87377380D01*
X109275595Y-87007380D02*
X109275595Y-86007380D01*
X109847023Y-87007380D02*
X109418452Y-86435952D01*
X109847023Y-86007380D02*
X109275595Y-86578809D01*
%TO.C,D3*%
X93876904Y-87377380D02*
X93876904Y-86377380D01*
X94115000Y-86377380D01*
X94257857Y-86425000D01*
X94353095Y-86520238D01*
X94400714Y-86615476D01*
X94448333Y-86805952D01*
X94448333Y-86948809D01*
X94400714Y-87139285D01*
X94353095Y-87234523D01*
X94257857Y-87329761D01*
X94115000Y-87377380D01*
X93876904Y-87377380D01*
X94781666Y-86377380D02*
X95400714Y-86377380D01*
X95067380Y-86758333D01*
X95210238Y-86758333D01*
X95305476Y-86805952D01*
X95353095Y-86853571D01*
X95400714Y-86948809D01*
X95400714Y-87186904D01*
X95353095Y-87282142D01*
X95305476Y-87329761D01*
X95210238Y-87377380D01*
X94924523Y-87377380D01*
X94829285Y-87329761D01*
X94781666Y-87282142D01*
X98163095Y-87007380D02*
X98163095Y-86007380D01*
X98734523Y-87007380D02*
X98305952Y-86435952D01*
X98734523Y-86007380D02*
X98163095Y-86578809D01*
%TO.C,NPN3*%
X99131380Y-69222714D02*
X98131380Y-69222714D01*
X99131380Y-68651285D01*
X98131380Y-68651285D01*
X99131380Y-68175095D02*
X98131380Y-68175095D01*
X98131380Y-67794142D01*
X98179000Y-67698904D01*
X98226619Y-67651285D01*
X98321857Y-67603666D01*
X98464714Y-67603666D01*
X98559952Y-67651285D01*
X98607571Y-67698904D01*
X98655190Y-67794142D01*
X98655190Y-68175095D01*
X99131380Y-67175095D02*
X98131380Y-67175095D01*
X99131380Y-66603666D01*
X98131380Y-66603666D01*
X98131380Y-66222714D02*
X98131380Y-65603666D01*
X98512333Y-65937000D01*
X98512333Y-65794142D01*
X98559952Y-65698904D01*
X98607571Y-65651285D01*
X98702809Y-65603666D01*
X98940904Y-65603666D01*
X99036142Y-65651285D01*
X99083761Y-65698904D01*
X99131380Y-65794142D01*
X99131380Y-66079857D01*
X99083761Y-66175095D01*
X99036142Y-66222714D01*
%TO.C,D4*%
X82764404Y-87377380D02*
X82764404Y-86377380D01*
X83002500Y-86377380D01*
X83145357Y-86425000D01*
X83240595Y-86520238D01*
X83288214Y-86615476D01*
X83335833Y-86805952D01*
X83335833Y-86948809D01*
X83288214Y-87139285D01*
X83240595Y-87234523D01*
X83145357Y-87329761D01*
X83002500Y-87377380D01*
X82764404Y-87377380D01*
X84192976Y-86710714D02*
X84192976Y-87377380D01*
X83954880Y-86329761D02*
X83716785Y-87044047D01*
X84335833Y-87044047D01*
X87050595Y-87007380D02*
X87050595Y-86007380D01*
X87622023Y-87007380D02*
X87193452Y-86435952D01*
X87622023Y-86007380D02*
X87050595Y-86578809D01*
%TO.C,CAP2*%
X104632261Y-79227142D02*
X104584642Y-79274761D01*
X104441785Y-79322380D01*
X104346547Y-79322380D01*
X104203690Y-79274761D01*
X104108452Y-79179523D01*
X104060833Y-79084285D01*
X104013214Y-78893809D01*
X104013214Y-78750952D01*
X104060833Y-78560476D01*
X104108452Y-78465238D01*
X104203690Y-78370000D01*
X104346547Y-78322380D01*
X104441785Y-78322380D01*
X104584642Y-78370000D01*
X104632261Y-78417619D01*
X105013214Y-79036666D02*
X105489404Y-79036666D01*
X104917976Y-79322380D02*
X105251309Y-78322380D01*
X105584642Y-79322380D01*
X105917976Y-79322380D02*
X105917976Y-78322380D01*
X106298928Y-78322380D01*
X106394166Y-78370000D01*
X106441785Y-78417619D01*
X106489404Y-78512857D01*
X106489404Y-78655714D01*
X106441785Y-78750952D01*
X106394166Y-78798571D01*
X106298928Y-78846190D01*
X105917976Y-78846190D01*
X106870357Y-78417619D02*
X106917976Y-78370000D01*
X107013214Y-78322380D01*
X107251309Y-78322380D01*
X107346547Y-78370000D01*
X107394166Y-78417619D01*
X107441785Y-78512857D01*
X107441785Y-78608095D01*
X107394166Y-78750952D01*
X106822738Y-79322380D01*
X107441785Y-79322380D01*
%TO.C,Fast*%
X33290000Y-53268571D02*
X32956666Y-53268571D01*
X32956666Y-53792380D02*
X32956666Y-52792380D01*
X33432857Y-52792380D01*
X34242380Y-53792380D02*
X34242380Y-53268571D01*
X34194761Y-53173333D01*
X34099523Y-53125714D01*
X33909047Y-53125714D01*
X33813809Y-53173333D01*
X34242380Y-53744761D02*
X34147142Y-53792380D01*
X33909047Y-53792380D01*
X33813809Y-53744761D01*
X33766190Y-53649523D01*
X33766190Y-53554285D01*
X33813809Y-53459047D01*
X33909047Y-53411428D01*
X34147142Y-53411428D01*
X34242380Y-53363809D01*
X34670952Y-53744761D02*
X34766190Y-53792380D01*
X34956666Y-53792380D01*
X35051904Y-53744761D01*
X35099523Y-53649523D01*
X35099523Y-53601904D01*
X35051904Y-53506666D01*
X34956666Y-53459047D01*
X34813809Y-53459047D01*
X34718571Y-53411428D01*
X34670952Y-53316190D01*
X34670952Y-53268571D01*
X34718571Y-53173333D01*
X34813809Y-53125714D01*
X34956666Y-53125714D01*
X35051904Y-53173333D01*
X35385238Y-53125714D02*
X35766190Y-53125714D01*
X35528095Y-52792380D02*
X35528095Y-53649523D01*
X35575714Y-53744761D01*
X35670952Y-53792380D01*
X35766190Y-53792380D01*
%TO.C,R6-10K1*%
X30940714Y-87912380D02*
X30607380Y-87436190D01*
X30369285Y-87912380D02*
X30369285Y-86912380D01*
X30750238Y-86912380D01*
X30845476Y-86960000D01*
X30893095Y-87007619D01*
X30940714Y-87102857D01*
X30940714Y-87245714D01*
X30893095Y-87340952D01*
X30845476Y-87388571D01*
X30750238Y-87436190D01*
X30369285Y-87436190D01*
X31797857Y-86912380D02*
X31607380Y-86912380D01*
X31512142Y-86960000D01*
X31464523Y-87007619D01*
X31369285Y-87150476D01*
X31321666Y-87340952D01*
X31321666Y-87721904D01*
X31369285Y-87817142D01*
X31416904Y-87864761D01*
X31512142Y-87912380D01*
X31702619Y-87912380D01*
X31797857Y-87864761D01*
X31845476Y-87817142D01*
X31893095Y-87721904D01*
X31893095Y-87483809D01*
X31845476Y-87388571D01*
X31797857Y-87340952D01*
X31702619Y-87293333D01*
X31512142Y-87293333D01*
X31416904Y-87340952D01*
X31369285Y-87388571D01*
X31321666Y-87483809D01*
X32321666Y-87531428D02*
X33083571Y-87531428D01*
X34083571Y-87912380D02*
X33512142Y-87912380D01*
X33797857Y-87912380D02*
X33797857Y-86912380D01*
X33702619Y-87055238D01*
X33607380Y-87150476D01*
X33512142Y-87198095D01*
X34702619Y-86912380D02*
X34797857Y-86912380D01*
X34893095Y-86960000D01*
X34940714Y-87007619D01*
X34988333Y-87102857D01*
X35035952Y-87293333D01*
X35035952Y-87531428D01*
X34988333Y-87721904D01*
X34940714Y-87817142D01*
X34893095Y-87864761D01*
X34797857Y-87912380D01*
X34702619Y-87912380D01*
X34607380Y-87864761D01*
X34559761Y-87817142D01*
X34512142Y-87721904D01*
X34464523Y-87531428D01*
X34464523Y-87293333D01*
X34512142Y-87102857D01*
X34559761Y-87007619D01*
X34607380Y-86960000D01*
X34702619Y-86912380D01*
X35464523Y-87912380D02*
X35464523Y-86912380D01*
X36035952Y-87912380D02*
X35607380Y-87340952D01*
X36035952Y-86912380D02*
X35464523Y-87483809D01*
X36988333Y-87912380D02*
X36416904Y-87912380D01*
X36702619Y-87912380D02*
X36702619Y-86912380D01*
X36607380Y-87055238D01*
X36512142Y-87150476D01*
X36416904Y-87198095D01*
%TO.C,CAP3*%
X93519761Y-79227142D02*
X93472142Y-79274761D01*
X93329285Y-79322380D01*
X93234047Y-79322380D01*
X93091190Y-79274761D01*
X92995952Y-79179523D01*
X92948333Y-79084285D01*
X92900714Y-78893809D01*
X92900714Y-78750952D01*
X92948333Y-78560476D01*
X92995952Y-78465238D01*
X93091190Y-78370000D01*
X93234047Y-78322380D01*
X93329285Y-78322380D01*
X93472142Y-78370000D01*
X93519761Y-78417619D01*
X93900714Y-79036666D02*
X94376904Y-79036666D01*
X93805476Y-79322380D02*
X94138809Y-78322380D01*
X94472142Y-79322380D01*
X94805476Y-79322380D02*
X94805476Y-78322380D01*
X95186428Y-78322380D01*
X95281666Y-78370000D01*
X95329285Y-78417619D01*
X95376904Y-78512857D01*
X95376904Y-78655714D01*
X95329285Y-78750952D01*
X95281666Y-78798571D01*
X95186428Y-78846190D01*
X94805476Y-78846190D01*
X95710238Y-78322380D02*
X96329285Y-78322380D01*
X95995952Y-78703333D01*
X96138809Y-78703333D01*
X96234047Y-78750952D01*
X96281666Y-78798571D01*
X96329285Y-78893809D01*
X96329285Y-79131904D01*
X96281666Y-79227142D01*
X96234047Y-79274761D01*
X96138809Y-79322380D01*
X95853095Y-79322380D01*
X95757857Y-79274761D01*
X95710238Y-79227142D01*
%TO.C,R3*%
X50252333Y-79827380D02*
X49919000Y-79351190D01*
X49680904Y-79827380D02*
X49680904Y-78827380D01*
X50061857Y-78827380D01*
X50157095Y-78875000D01*
X50204714Y-78922619D01*
X50252333Y-79017857D01*
X50252333Y-79160714D01*
X50204714Y-79255952D01*
X50157095Y-79303571D01*
X50061857Y-79351190D01*
X49680904Y-79351190D01*
X50585666Y-78827380D02*
X51204714Y-78827380D01*
X50871380Y-79208333D01*
X51014238Y-79208333D01*
X51109476Y-79255952D01*
X51157095Y-79303571D01*
X51204714Y-79398809D01*
X51204714Y-79636904D01*
X51157095Y-79732142D01*
X51109476Y-79779761D01*
X51014238Y-79827380D01*
X50728523Y-79827380D01*
X50633285Y-79779761D01*
X50585666Y-79732142D01*
%TO.C,R2*%
X50252333Y-75763380D02*
X49919000Y-75287190D01*
X49680904Y-75763380D02*
X49680904Y-74763380D01*
X50061857Y-74763380D01*
X50157095Y-74811000D01*
X50204714Y-74858619D01*
X50252333Y-74953857D01*
X50252333Y-75096714D01*
X50204714Y-75191952D01*
X50157095Y-75239571D01*
X50061857Y-75287190D01*
X49680904Y-75287190D01*
X50633285Y-74858619D02*
X50680904Y-74811000D01*
X50776142Y-74763380D01*
X51014238Y-74763380D01*
X51109476Y-74811000D01*
X51157095Y-74858619D01*
X51204714Y-74953857D01*
X51204714Y-75049095D01*
X51157095Y-75191952D01*
X50585666Y-75763380D01*
X51204714Y-75763380D01*
%TO.C,RV2-Velocidad1*%
X28287185Y-70096380D02*
X27953852Y-69620190D01*
X27715757Y-70096380D02*
X27715757Y-69096380D01*
X28096709Y-69096380D01*
X28191947Y-69144000D01*
X28239566Y-69191619D01*
X28287185Y-69286857D01*
X28287185Y-69429714D01*
X28239566Y-69524952D01*
X28191947Y-69572571D01*
X28096709Y-69620190D01*
X27715757Y-69620190D01*
X28572900Y-69096380D02*
X28906233Y-70096380D01*
X29239566Y-69096380D01*
X29525280Y-69191619D02*
X29572899Y-69144000D01*
X29668138Y-69096380D01*
X29906233Y-69096380D01*
X30001471Y-69144000D01*
X30049090Y-69191619D01*
X30096709Y-69286857D01*
X30096709Y-69382095D01*
X30049090Y-69524952D01*
X29477661Y-70096380D01*
X30096709Y-70096380D01*
X30525280Y-69715428D02*
X31287185Y-69715428D01*
X31620519Y-69096380D02*
X31953852Y-70096380D01*
X32287185Y-69096380D01*
X33001471Y-70048761D02*
X32906233Y-70096380D01*
X32715757Y-70096380D01*
X32620519Y-70048761D01*
X32572900Y-69953523D01*
X32572900Y-69572571D01*
X32620519Y-69477333D01*
X32715757Y-69429714D01*
X32906233Y-69429714D01*
X33001471Y-69477333D01*
X33049090Y-69572571D01*
X33049090Y-69667809D01*
X32572900Y-69763047D01*
X33620519Y-70096380D02*
X33525280Y-70048761D01*
X33477661Y-69953523D01*
X33477661Y-69096380D01*
X34144328Y-70096380D02*
X34049090Y-70048761D01*
X34001471Y-70001142D01*
X33953852Y-69905904D01*
X33953852Y-69620190D01*
X34001471Y-69524952D01*
X34049090Y-69477333D01*
X34144328Y-69429714D01*
X34287185Y-69429714D01*
X34382423Y-69477333D01*
X34430042Y-69524952D01*
X34477661Y-69620190D01*
X34477661Y-69905904D01*
X34430042Y-70001142D01*
X34382423Y-70048761D01*
X34287185Y-70096380D01*
X34144328Y-70096380D01*
X35334804Y-70048761D02*
X35239566Y-70096380D01*
X35049090Y-70096380D01*
X34953852Y-70048761D01*
X34906233Y-70001142D01*
X34858614Y-69905904D01*
X34858614Y-69620190D01*
X34906233Y-69524952D01*
X34953852Y-69477333D01*
X35049090Y-69429714D01*
X35239566Y-69429714D01*
X35334804Y-69477333D01*
X35763376Y-70096380D02*
X35763376Y-69429714D01*
X35763376Y-69096380D02*
X35715757Y-69144000D01*
X35763376Y-69191619D01*
X35810995Y-69144000D01*
X35763376Y-69096380D01*
X35763376Y-69191619D01*
X36668138Y-70096380D02*
X36668138Y-69096380D01*
X36668138Y-70048761D02*
X36572900Y-70096380D01*
X36382423Y-70096380D01*
X36287185Y-70048761D01*
X36239566Y-70001142D01*
X36191947Y-69905904D01*
X36191947Y-69620190D01*
X36239566Y-69524952D01*
X36287185Y-69477333D01*
X36382423Y-69429714D01*
X36572900Y-69429714D01*
X36668138Y-69477333D01*
X37572900Y-70096380D02*
X37572900Y-69572571D01*
X37525280Y-69477333D01*
X37430042Y-69429714D01*
X37239566Y-69429714D01*
X37144328Y-69477333D01*
X37572900Y-70048761D02*
X37477661Y-70096380D01*
X37239566Y-70096380D01*
X37144328Y-70048761D01*
X37096709Y-69953523D01*
X37096709Y-69858285D01*
X37144328Y-69763047D01*
X37239566Y-69715428D01*
X37477661Y-69715428D01*
X37572900Y-69667809D01*
X38477661Y-70096380D02*
X38477661Y-69096380D01*
X38477661Y-70048761D02*
X38382423Y-70096380D01*
X38191947Y-70096380D01*
X38096709Y-70048761D01*
X38049090Y-70001142D01*
X38001471Y-69905904D01*
X38001471Y-69620190D01*
X38049090Y-69524952D01*
X38096709Y-69477333D01*
X38191947Y-69429714D01*
X38382423Y-69429714D01*
X38477661Y-69477333D01*
X39477661Y-70096380D02*
X38906233Y-70096380D01*
X39191947Y-70096380D02*
X39191947Y-69096380D01*
X39096709Y-69239238D01*
X39001471Y-69334476D01*
X38906233Y-69382095D01*
%TO.C,NPN2*%
X110180380Y-69222714D02*
X109180380Y-69222714D01*
X110180380Y-68651285D01*
X109180380Y-68651285D01*
X110180380Y-68175095D02*
X109180380Y-68175095D01*
X109180380Y-67794142D01*
X109228000Y-67698904D01*
X109275619Y-67651285D01*
X109370857Y-67603666D01*
X109513714Y-67603666D01*
X109608952Y-67651285D01*
X109656571Y-67698904D01*
X109704190Y-67794142D01*
X109704190Y-68175095D01*
X110180380Y-67175095D02*
X109180380Y-67175095D01*
X110180380Y-66603666D01*
X109180380Y-66603666D01*
X109275619Y-66175095D02*
X109228000Y-66127476D01*
X109180380Y-66032238D01*
X109180380Y-65794142D01*
X109228000Y-65698904D01*
X109275619Y-65651285D01*
X109370857Y-65603666D01*
X109466095Y-65603666D01*
X109608952Y-65651285D01*
X110180380Y-66222714D01*
X110180380Y-65603666D01*
%TO.C,D1*%
X116101904Y-87506187D02*
X116101904Y-86506187D01*
X116340000Y-86506187D01*
X116482857Y-86553807D01*
X116578095Y-86649045D01*
X116625714Y-86744283D01*
X116673333Y-86934759D01*
X116673333Y-87077616D01*
X116625714Y-87268092D01*
X116578095Y-87363330D01*
X116482857Y-87458568D01*
X116340000Y-87506187D01*
X116101904Y-87506187D01*
X117625714Y-87506187D02*
X117054285Y-87506187D01*
X117340000Y-87506187D02*
X117340000Y-86506187D01*
X117244761Y-86649045D01*
X117149523Y-86744283D01*
X117054285Y-86791902D01*
X120388095Y-87136187D02*
X120388095Y-86136187D01*
X120959523Y-87136187D02*
X120530952Y-86564759D01*
X120959523Y-86136187D02*
X120388095Y-86707616D01*
%TO.C,D5*%
X71651904Y-87377380D02*
X71651904Y-86377380D01*
X71890000Y-86377380D01*
X72032857Y-86425000D01*
X72128095Y-86520238D01*
X72175714Y-86615476D01*
X72223333Y-86805952D01*
X72223333Y-86948809D01*
X72175714Y-87139285D01*
X72128095Y-87234523D01*
X72032857Y-87329761D01*
X71890000Y-87377380D01*
X71651904Y-87377380D01*
X73128095Y-86377380D02*
X72651904Y-86377380D01*
X72604285Y-86853571D01*
X72651904Y-86805952D01*
X72747142Y-86758333D01*
X72985238Y-86758333D01*
X73080476Y-86805952D01*
X73128095Y-86853571D01*
X73175714Y-86948809D01*
X73175714Y-87186904D01*
X73128095Y-87282142D01*
X73080476Y-87329761D01*
X72985238Y-87377380D01*
X72747142Y-87377380D01*
X72651904Y-87329761D01*
X72604285Y-87282142D01*
X75938095Y-87007380D02*
X75938095Y-86007380D01*
X76509523Y-87007380D02*
X76080952Y-86435952D01*
X76509523Y-86007380D02*
X75938095Y-86578809D01*
%TO.C,R1*%
X50252333Y-71953380D02*
X49919000Y-71477190D01*
X49680904Y-71953380D02*
X49680904Y-70953380D01*
X50061857Y-70953380D01*
X50157095Y-71001000D01*
X50204714Y-71048619D01*
X50252333Y-71143857D01*
X50252333Y-71286714D01*
X50204714Y-71381952D01*
X50157095Y-71429571D01*
X50061857Y-71477190D01*
X49680904Y-71477190D01*
X51204714Y-71953380D02*
X50633285Y-71953380D01*
X50919000Y-71953380D02*
X50919000Y-70953380D01*
X50823761Y-71096238D01*
X50728523Y-71191476D01*
X50633285Y-71239095D01*
D12*
%TO.C,NPN1*%
X118237820Y-64922574D02*
G75*
G03*
X119227557Y-65912393I-1582544J-2572150D01*
G01*
X119149775Y-64010276D02*
X118237607Y-64922443D01*
X119227557Y-65912393D02*
X120139724Y-65000225D01*
X120139724Y-65000225D02*
X119149775Y-64010276D01*
%TO.C,BRAIN1*%
X65489600Y-52959000D02*
G75*
G03*
X62839600Y-50309000I-2650000J0D01*
G01*
X42409600Y-98679000D02*
G75*
G03*
X45059600Y-101329000I2650000J0D01*
G01*
X45059600Y-50309000D02*
G75*
G03*
X42409600Y-52959000I0J-2650000D01*
G01*
X62839600Y-101329000D02*
G75*
G03*
X65489600Y-98679000I0J2650000D01*
G01*
X65489600Y-52959000D02*
X65489600Y-98679000D01*
X42409600Y-52959000D02*
X42409600Y-98679000D01*
X62839600Y-101329000D02*
X45059600Y-101329000D01*
X62839600Y-50309000D02*
X45059600Y-50309000D01*
X42089600Y-57769000D02*
X42089600Y-55769000D01*
%TO.C,NPN5*%
X72702544Y-64922574D02*
G75*
G03*
X73692281Y-65912393I-1582544J-2572150D01*
G01*
X74604448Y-65000225D02*
X73614499Y-64010276D01*
X73692281Y-65912393D02*
X74604448Y-65000225D01*
X73614499Y-64010276D02*
X72702331Y-64922443D01*
%TO.C,R5*%
X53245000Y-85625000D02*
X53245000Y-85955000D01*
X59785000Y-88365000D02*
X53245000Y-88365000D01*
X53245000Y-88365000D02*
X53245000Y-88035000D01*
X59785000Y-85625000D02*
X53245000Y-85625000D01*
X59785000Y-88035000D02*
X59785000Y-88365000D01*
X59785000Y-85955000D02*
X59785000Y-85625000D01*
%TO.C,GP-Switch*%
X87690000Y-54670000D02*
X87690000Y-52010000D01*
X82550000Y-54670000D02*
X87690000Y-54670000D01*
X81280000Y-54670000D02*
X79950000Y-54670000D01*
X82550000Y-52010000D02*
X87690000Y-52010000D01*
X79950000Y-54670000D02*
X79950000Y-53340000D01*
X82550000Y-54670000D02*
X82550000Y-52010000D01*
%TO.C,M5*%
X70070000Y-90590000D02*
X72170000Y-90590000D01*
X74570000Y-97590000D02*
X74570000Y-90590000D01*
X68420000Y-102490000D02*
X67670000Y-102490000D01*
X74570000Y-99990000D02*
X74570000Y-102490000D01*
X74570000Y-102490000D02*
X73820000Y-102490000D01*
X67670000Y-102490000D02*
X67670000Y-99990000D01*
X67670000Y-97590000D02*
X67670000Y-92490000D01*
%TO.C,M4*%
X79258750Y-97590000D02*
X79258750Y-92490000D01*
X79258750Y-102490000D02*
X79258750Y-99990000D01*
X86158750Y-102490000D02*
X85408750Y-102490000D01*
X86158750Y-99990000D02*
X86158750Y-102490000D01*
X80008750Y-102490000D02*
X79258750Y-102490000D01*
X86158750Y-97590000D02*
X86158750Y-90590000D01*
X81658750Y-90590000D02*
X83758750Y-90590000D01*
%TO.C,M3*%
X90847500Y-97590000D02*
X90847500Y-92490000D01*
X90847500Y-102490000D02*
X90847500Y-99990000D01*
X97747500Y-102490000D02*
X96997500Y-102490000D01*
X97747500Y-99990000D02*
X97747500Y-102490000D01*
X91597500Y-102490000D02*
X90847500Y-102490000D01*
X97747500Y-97590000D02*
X97747500Y-90590000D01*
X93247500Y-90590000D02*
X95347500Y-90590000D01*
%TO.C,M2*%
X102436250Y-97590000D02*
X102436250Y-92490000D01*
X102436250Y-102490000D02*
X102436250Y-99990000D01*
X109336250Y-102490000D02*
X108586250Y-102490000D01*
X109336250Y-99990000D02*
X109336250Y-102490000D01*
X103186250Y-102490000D02*
X102436250Y-102490000D01*
X109336250Y-97590000D02*
X109336250Y-90590000D01*
X104836250Y-90590000D02*
X106936250Y-90590000D01*
%TO.C,J1_Battery1*%
X99695000Y-54670000D02*
X98365000Y-54670000D01*
X103565000Y-54670000D02*
X103565000Y-52010000D01*
X100965000Y-54670000D02*
X103565000Y-54670000D01*
X100965000Y-54670000D02*
X100965000Y-52010000D01*
X98365000Y-54670000D02*
X98365000Y-53340000D01*
X100965000Y-52010000D02*
X103565000Y-52010000D01*
%TO.C,M1*%
X114025000Y-97590000D02*
X114025000Y-92490000D01*
X114025000Y-102490000D02*
X114025000Y-99990000D01*
X120925000Y-102490000D02*
X120175000Y-102490000D01*
X120925000Y-99990000D02*
X120925000Y-102490000D01*
X114775000Y-102490000D02*
X114025000Y-102490000D01*
X120925000Y-97590000D02*
X120925000Y-90590000D01*
X116425000Y-90590000D02*
X118525000Y-90590000D01*
%TO.C,RV1-Potencia1*%
X28452900Y-61181800D02*
X28452900Y-63330800D01*
X28452900Y-57234800D02*
X28452900Y-58329800D01*
X28452900Y-66180800D02*
X28452900Y-67275800D01*
X38692900Y-57234800D02*
X38692900Y-60830800D01*
X38692900Y-63680800D02*
X38692900Y-67275800D01*
X28452900Y-67275800D02*
X38692900Y-67275800D01*
X28452900Y-57234800D02*
X38692900Y-57234800D01*
%TO.C,CAP4*%
X86172500Y-74530000D02*
X80832500Y-74530000D01*
X80792500Y-76200000D02*
X80832500Y-76200000D01*
X86212500Y-76200000D02*
X86172500Y-76200000D01*
X86172500Y-77870000D02*
X86172500Y-74530000D01*
X80832500Y-74530000D02*
X80832500Y-77870000D01*
X80832500Y-77870000D02*
X86172500Y-77870000D01*
%TO.C,R4*%
X59785000Y-82145000D02*
X59785000Y-81815000D01*
X59785000Y-84225000D02*
X59785000Y-84555000D01*
X53245000Y-81815000D02*
X53245000Y-82145000D01*
X59785000Y-81815000D02*
X53245000Y-81815000D01*
X59785000Y-84555000D02*
X53245000Y-84555000D01*
X53245000Y-84555000D02*
X53245000Y-84225000D01*
%TO.C,CAP5*%
X75060000Y-77870000D02*
X75060000Y-74530000D01*
X69720000Y-77870000D02*
X75060000Y-77870000D01*
X69720000Y-74530000D02*
X69720000Y-77870000D01*
X75100000Y-76200000D02*
X75060000Y-76200000D01*
X69680000Y-76200000D02*
X69720000Y-76200000D01*
X75060000Y-74530000D02*
X69720000Y-74530000D01*
%TO.C,NPN4*%
X84086363Y-64922574D02*
G75*
G03*
X85076100Y-65912393I-1582544J-2572150D01*
G01*
X84998318Y-64010276D02*
X84086150Y-64922443D01*
X85988267Y-65000225D02*
X84998318Y-64010276D01*
X85076100Y-65912393D02*
X85988267Y-65000225D01*
%TO.C,SW-Mode1*%
X30967900Y-92075000D02*
X30967900Y-92135000D01*
X30967900Y-92135000D02*
X36167900Y-92135000D01*
X30967900Y-89475000D02*
X32297900Y-89475000D01*
X33567900Y-89475000D02*
X36167900Y-89475000D01*
X33567900Y-92075000D02*
X33567900Y-89475000D01*
X30967900Y-90805000D02*
X30967900Y-89475000D01*
X36167900Y-89475000D02*
X36167900Y-92135000D01*
X30967900Y-92075000D02*
X33567900Y-92075000D01*
%TO.C,CAP1*%
X119510000Y-74530000D02*
X114170000Y-74530000D01*
X114170000Y-74530000D02*
X114170000Y-77870000D01*
X114130000Y-76200000D02*
X114170000Y-76200000D01*
X119550000Y-76200000D02*
X119510000Y-76200000D01*
X114170000Y-77870000D02*
X119510000Y-77870000D01*
X119510000Y-77870000D02*
X119510000Y-74530000D01*
%TO.C,D2*%
X108447500Y-83115000D02*
X108447500Y-82985000D01*
X103007500Y-82985000D02*
X103007500Y-83115000D01*
X103007500Y-85925000D02*
X103007500Y-85795000D01*
X108447500Y-85795000D02*
X108447500Y-85925000D01*
X107427500Y-85925000D02*
X107427500Y-82985000D01*
X108447500Y-82985000D02*
X103007500Y-82985000D01*
X107547500Y-85925000D02*
X107547500Y-82985000D01*
X107667500Y-85925000D02*
X107667500Y-82985000D01*
X108447500Y-85925000D02*
X103007500Y-85925000D01*
%TO.C,D3*%
X97335000Y-85925000D02*
X91895000Y-85925000D01*
X91895000Y-82985000D02*
X91895000Y-83115000D01*
X91895000Y-85925000D02*
X91895000Y-85795000D01*
X97335000Y-82985000D02*
X91895000Y-82985000D01*
X97335000Y-85795000D02*
X97335000Y-85925000D01*
X96555000Y-85925000D02*
X96555000Y-82985000D01*
X96315000Y-85925000D02*
X96315000Y-82985000D01*
X96435000Y-85925000D02*
X96435000Y-82985000D01*
X97335000Y-83115000D02*
X97335000Y-82985000D01*
%TO.C,NPN3*%
X95470182Y-64922574D02*
G75*
G03*
X96459919Y-65912393I-1582544J-2572150D01*
G01*
X97372086Y-65000225D02*
X96382137Y-64010276D01*
X96382137Y-64010276D02*
X95469969Y-64922443D01*
X96459919Y-65912393D02*
X97372086Y-65000225D01*
%TO.C,D4*%
X85322500Y-85925000D02*
X85322500Y-82985000D01*
X80782500Y-85925000D02*
X80782500Y-85795000D01*
X85202500Y-85925000D02*
X85202500Y-82985000D01*
X86222500Y-82985000D02*
X80782500Y-82985000D01*
X80782500Y-82985000D02*
X80782500Y-83115000D01*
X86222500Y-85925000D02*
X80782500Y-85925000D01*
X86222500Y-83115000D02*
X86222500Y-82985000D01*
X86222500Y-85795000D02*
X86222500Y-85925000D01*
X85442500Y-85925000D02*
X85442500Y-82985000D01*
%TO.C,CAP2*%
X108437500Y-76200000D02*
X108397500Y-76200000D01*
X108397500Y-74530000D02*
X103057500Y-74530000D01*
X103057500Y-74530000D02*
X103057500Y-77870000D01*
X103017500Y-76200000D02*
X103057500Y-76200000D01*
X108397500Y-77870000D02*
X108397500Y-74530000D01*
X103057500Y-77870000D02*
X108397500Y-77870000D01*
%TO.C,R6-10K1*%
X30385000Y-83720000D02*
X30385000Y-84050000D01*
X36925000Y-84050000D02*
X36925000Y-83720000D01*
X36925000Y-86460000D02*
X30385000Y-86460000D01*
X36925000Y-86130000D02*
X36925000Y-86460000D01*
X36925000Y-83720000D02*
X30385000Y-83720000D01*
X30385000Y-86460000D02*
X30385000Y-86130000D01*
%TO.C,CAP3*%
X91945000Y-77870000D02*
X97285000Y-77870000D01*
X91905000Y-76200000D02*
X91945000Y-76200000D01*
X97325000Y-76200000D02*
X97285000Y-76200000D01*
X91945000Y-74530000D02*
X91945000Y-77870000D01*
X97285000Y-77870000D02*
X97285000Y-74530000D01*
X97285000Y-74530000D02*
X91945000Y-74530000D01*
%TO.C,R3*%
X59785000Y-78335000D02*
X59785000Y-78005000D01*
X53245000Y-80745000D02*
X53245000Y-80415000D01*
X59785000Y-78005000D02*
X53245000Y-78005000D01*
X59785000Y-80415000D02*
X59785000Y-80745000D01*
X59785000Y-80745000D02*
X53245000Y-80745000D01*
X53245000Y-78005000D02*
X53245000Y-78335000D01*
%TO.C,R2*%
X59785000Y-74525000D02*
X59785000Y-74195000D01*
X59785000Y-76605000D02*
X59785000Y-76935000D01*
X59785000Y-76935000D02*
X53245000Y-76935000D01*
X53245000Y-74195000D02*
X53245000Y-74525000D01*
X53245000Y-76935000D02*
X53245000Y-76605000D01*
X59785000Y-74195000D02*
X53245000Y-74195000D01*
%TO.C,RV2-Velocidad1*%
X38692900Y-70773000D02*
X38692900Y-74369000D01*
X28452900Y-79719000D02*
X28452900Y-80814000D01*
X28452900Y-74720000D02*
X28452900Y-76869000D01*
X28452900Y-80814000D02*
X38692900Y-80814000D01*
X28452900Y-70773000D02*
X28452900Y-71868000D01*
X38692900Y-77219000D02*
X38692900Y-80814000D01*
X28452900Y-70773000D02*
X38692900Y-70773000D01*
%TO.C,NPN2*%
X106854001Y-64922574D02*
G75*
G03*
X107843738Y-65912393I-1582544J-2572150D01*
G01*
X107765956Y-64010276D02*
X106853788Y-64922443D01*
X107843738Y-65912393D02*
X108755905Y-65000225D01*
X108755905Y-65000225D02*
X107765956Y-64010276D01*
%TO.C,D1*%
X119560000Y-85923807D02*
X119560000Y-86053807D01*
X118540000Y-86053807D02*
X118540000Y-83113807D01*
X119560000Y-86053807D02*
X114120000Y-86053807D01*
X118780000Y-86053807D02*
X118780000Y-83113807D01*
X119560000Y-83113807D02*
X114120000Y-83113807D01*
X119560000Y-83243807D02*
X119560000Y-83113807D01*
X114120000Y-83113807D02*
X114120000Y-83243807D01*
X114120000Y-86053807D02*
X114120000Y-85923807D01*
X118660000Y-86053807D02*
X118660000Y-83113807D01*
%TO.C,D5*%
X69670000Y-85925000D02*
X69670000Y-85795000D01*
X69670000Y-82985000D02*
X69670000Y-83115000D01*
X74210000Y-85925000D02*
X74210000Y-82985000D01*
X75110000Y-83115000D02*
X75110000Y-82985000D01*
X74330000Y-85925000D02*
X74330000Y-82985000D01*
X75110000Y-85795000D02*
X75110000Y-85925000D01*
X74090000Y-85925000D02*
X74090000Y-82985000D01*
X75110000Y-82985000D02*
X69670000Y-82985000D01*
X75110000Y-85925000D02*
X69670000Y-85925000D01*
%TO.C,R1*%
X59785000Y-73125000D02*
X53245000Y-73125000D01*
X53245000Y-73125000D02*
X53245000Y-72795000D01*
X53245000Y-70385000D02*
X53245000Y-70715000D01*
X59785000Y-72795000D02*
X59785000Y-73125000D01*
X59785000Y-70715000D02*
X59785000Y-70385000D01*
X59785000Y-70385000D02*
X53245000Y-70385000D01*
%TD*%
M02*
