M48
INCH
T1C0.0157
T2C0.0276
T3C0.0315
T4C0.0394
T5C0.0433
T6C0.0472
T7C0.0512
%
G90
G05
T1
X3.175Y-2.45
X3.225Y-2.3
X3.225Y-2.375
T2
X2.75Y-2.6573
X2.8Y-2.6073
X2.8Y-2.7073
X3.1982Y-2.6573
X3.2482Y-2.6073
X3.2482Y-2.7073
X3.6464Y-2.6573
X3.6964Y-2.6073
X3.6964Y-2.7073
X4.0945Y-2.6573
X4.1445Y-2.6073
X4.1445Y-2.7073
X4.5427Y-2.6573
X4.5927Y-2.6073
X4.5927Y-2.7073
T3
X1.175Y-3.35
X1.475Y-3.35
X1.724Y-2.235
X1.724Y-2.335
X1.724Y-2.435
X1.724Y-2.535
X1.724Y-2.635
X1.724Y-2.735
X1.724Y-2.835
X1.724Y-2.935
X1.724Y-3.035
X1.724Y-3.135
X1.724Y-3.235
X1.724Y-3.335
X1.724Y-3.435
X1.724Y-3.535
X1.724Y-3.635
X1.724Y-3.735
X2.075Y-2.825
X2.075Y-2.975
X2.075Y-3.125
X2.075Y-3.275
X2.075Y-3.425
X2.375Y-2.825
X2.375Y-2.975
X2.375Y-3.125
X2.375Y-3.275
X2.375Y-3.425
X2.524Y-2.635
X2.524Y-2.735
X2.524Y-2.835
X2.524Y-2.935
X2.524Y-3.035
X2.524Y-3.135
X2.524Y-3.235
X2.524Y-3.335
X2.524Y-3.435
X2.524Y-3.535
X2.524Y-3.635
X2.524Y-3.735
X2.7024Y-3.0
X2.9976Y-3.0
X3.1399Y-3.0
X3.4351Y-3.0
X3.5774Y-3.0
X3.8726Y-3.0
X4.0149Y-3.0
X4.3101Y-3.0
X4.4524Y-3.0
X4.7476Y-3.0
T4
X1.2716Y-3.575
X1.3716Y-3.575
X3.2Y-2.1
X3.3Y-2.1
X3.4Y-2.1
X3.925Y-2.1
X4.025Y-2.1
T5
X2.7Y-3.325
X3.0Y-3.325
X3.1375Y-3.325
X3.4375Y-3.325
X3.575Y-3.325
X3.875Y-3.325
X4.0125Y-3.325
X4.3125Y-3.325
X4.45Y-3.3301
X4.75Y-3.3301
T6
X2.6858Y-3.8894
X2.7114Y-3.5941
X2.8886Y-3.5941
X2.9142Y-3.8894
X3.1421Y-3.8894
X3.1677Y-3.5941
X3.3448Y-3.5941
X3.3704Y-3.8894
X3.5983Y-3.8894
X3.6239Y-3.5941
X3.8011Y-3.5941
X3.8267Y-3.8894
X4.0546Y-3.8894
X4.0802Y-3.5941
X4.2573Y-3.5941
X4.2829Y-3.8894
X4.5108Y-3.8894
X4.5364Y-3.5941
X4.7136Y-3.5941
X4.7392Y-3.8894
T7
X1.1249Y-2.3526
X1.1249Y-2.5494
X1.1249Y-2.8856
X1.1249Y-3.0824
X1.5186Y-2.451
X1.5186Y-2.984
T0
M30
